{
  "asset": {
    "version": "2.0",
    "generator": "Society3D-Mascot-Generator"
  },
  "scene": 0,
  "scenes": [
    {
      "nodes": [
        0,
        1,
        2,
        3,
        4
      ]
    }
  ],
  "nodes": [
    {
      "name": "Ciphra_Body",
      "mesh": 0,
      "translation": [
        0,
        0,
        0
      ]
    },
    {
      "name": "Ciphra_Head",
      "mesh": 1,
      "translation": [
        0,
        0,
        0
      ]
    },
    {
      "name": "Ciphra_Hair",
      "mesh": 2,
      "translation": [
        0,
        0,
        0
      ]
    },
    {
      "name": "Ciphra_LeftEye",
      "mesh": 3,
      "translation": [
        0,
        0,
        0
      ]
    },
    {
      "name": "Ciphra_RightEye",
      "mesh": 4,
      "translation": [
        0,
        0,
        0
      ]
    }
  ],
  "meshes": [
    {
      "name": "Body",
      "primitives": [
        {
          "attributes": {
            "POSITION": 0,
            "NORMAL": 1
          },
          "indices": 2,
          "material": 0
        }
      ]
    },
    {
      "name": "Head",
      "primitives": [
        {
          "attributes": {
            "POSITION": 3,
            "NORMAL": 4
          },
          "indices": 5,
          "material": 1
        }
      ]
    },
    {
      "name": "Hair",
      "primitives": [
        {
          "attributes": {
            "POSITION": 6,
            "NORMAL": 7
          },
          "indices": 8,
          "material": 2
        }
      ]
    },
    {
      "name": "LeftEye",
      "primitives": [
        {
          "attributes": {
            "POSITION": 9,
            "NORMAL": 10
          },
          "indices": 11,
          "material": 3
        }
      ]
    },
    {
      "name": "RightEye",
      "primitives": [
        {
          "attributes": {
            "POSITION": 12,
            "NORMAL": 13
          },
          "indices": 14,
          "material": 3
        }
      ]
    }
  ],
  "materials": [
    {
      "name": "BodyMaterial",
      "pbrMetallicRoughness": {
        "baseColorFactor": [
          0.12,
          0.12,
          0.12,
          1.0
        ],
        "metallicFactor": 0.3,
        "roughnessFactor": 0.4
      },
      "emissiveFactor": [
        0.01,
        0.01,
        0.01
      ]
    },
    {
      "name": "HeadMaterial",
      "pbrMetallicRoughness": {
        "baseColorFactor": [
          0.15,
          0.15,
          0.15,
          1.0
        ],
        "metallicFactor": 0.2,
        "roughnessFactor": 0.3
      },
      "emissiveFactor": [
        0.03,
        0.04,
        0.01
      ]
    },
    {
      "name": "HairMaterial",
      "pbrMetallicRoughness": {
        "baseColorFactor": [
          0.85,
          1.0,
          0.24,
          0.7
        ],
        "metallicFactor": 0.5,
        "roughnessFactor": 0.3
      },
      "emissiveFactor": [
        0.3,
        0.4,
        0.08
      ],
      "emissiveStrength": 0.5,
      "alphaMode": "BLEND"
    },
    {
      "name": "EyeMaterial",
      "pbrMetallicRoughness": {
        "baseColorFactor": [
          0.85,
          1.0,
          0.24,
          1.0
        ],
        "metallicFactor": 0.0,
        "roughnessFactor": 0.0
      },
      "emissiveFactor": [
        0.85,
        1.0,
        0.24
      ],
      "emissiveStrength": 1.5
    }
  ],
  "accessors": [
    {
      "bufferView": 0,
      "componentType": 5126,
      "count": 169,
      "type": "VEC3",
      "max": [
        0.7,
        0.91,
        0.7
      ],
      "min": [
        -0.7,
        -0.91,
        -0.7
      ]
    },
    {
      "bufferView": 0,
      "byteOffset": 12,
      "componentType": 5126,
      "count": 169,
      "type": "VEC3"
    },
    {
      "bufferView": 1,
      "componentType": 5123,
      "count": 864,
      "type": "SCALAR"
    },
    {
      "bufferView": 2,
      "componentType": 5126,
      "count": 121,
      "type": "VEC3",
      "max": [
        0.55,
        2.15,
        0.55
      ],
      "min": [
        -0.55,
        1.05,
        -0.55
      ]
    },
    {
      "bufferView": 2,
      "byteOffset": 12,
      "componentType": 5126,
      "count": 121,
      "type": "VEC3"
    },
    {
      "bufferView": 3,
      "componentType": 5123,
      "count": 600,
      "type": "SCALAR"
    },
    {
      "bufferView": 4,
      "componentType": 5126,
      "count": 96,
      "type": "VEC3"
    },
    {
      "bufferView": 4,
      "byteOffset": 12,
      "componentType": 5126,
      "count": 96,
      "type": "VEC3"
    },
    {
      "bufferView": 5,
      "componentType": 5123,
      "count": 576,
      "type": "SCALAR"
    },
    {
      "bufferView": 6,
      "componentType": 5126,
      "count": 8,
      "type": "VEC3"
    },
    {
      "bufferView": 6,
      "byteOffset": 12,
      "componentType": 5126,
      "count": 8,
      "type": "VEC3"
    },
    {
      "bufferView": 7,
      "componentType": 5123,
      "count": 36,
      "type": "SCALAR"
    },
    {
      "bufferView": 8,
      "componentType": 5126,
      "count": 8,
      "type": "VEC3"
    },
    {
      "bufferView": 8,
      "byteOffset": 12,
      "componentType": 5126,
      "count": 8,
      "type": "VEC3"
    },
    {
      "bufferView": 9,
      "componentType": 5123,
      "count": 36,
      "type": "SCALAR"
    }
  ],
  "bufferViews": [
    {
      "buffer": 0,
      "byteOffset": 0,
      "byteLength": 4056,
      "byteStride": 24
    },
    {
      "buffer": 0,
      "byteOffset": 4056,
      "byteLength": 1728
    },
    {
      "buffer": 0,
      "byteOffset": 5784,
      "byteLength": 2904,
      "byteStride": 24
    },
    {
      "buffer": 0,
      "byteOffset": 8688,
      "byteLength": 1200
    },
    {
      "buffer": 0,
      "byteOffset": 9888,
      "byteLength": 2304,
      "byteStride": 24
    },
    {
      "buffer": 0,
      "byteOffset": 12192,
      "byteLength": 1152
    },
    {
      "buffer": 0,
      "byteOffset": 13344,
      "byteLength": 192,
      "byteStride": 24
    },
    {
      "buffer": 0,
      "byteOffset": 13536,
      "byteLength": 72
    },
    {
      "buffer": 0,
      "byteOffset": 13608,
      "byteLength": 192,
      "byteStride": 24
    },
    {
      "buffer": 0,
      "byteOffset": 13800,
      "byteLength": 72
    }
  ],
  "buffers": [
    {
      "uri": "data:application/octet-stream;base64,",
      "byteLength": 13872
    }
  ]
}